<mxfile host="app.diagrams.net" modified="2024-01-14T21:24:36.265Z" agent="Mozilla/5.0 (Windows NT 10.0; Win64; x64) AppleWebKit/537.36 (KHTML, like Gecko) Chrome/119.0.0.0 Safari/537.36 OPR/105.0.0.0" etag="zIMnN08jtoBFuUrLiS97" version="22.1.18" type="github">
  <diagram name="Page-1" id="j5OnJVxEDQzHu8o3nnaQ">
    <mxGraphModel dx="1191" dy="1099" grid="1" gridSize="10" guides="1" tooltips="1" connect="1" arrows="1" fold="1" page="1" pageScale="1" pageWidth="850" pageHeight="1100" math="0" shadow="0">
      <root>
        <mxCell id="0" />
        <mxCell id="1" parent="0" />
        <mxCell id="gB1YrU3bY2tHt8rJDZex-4" style="edgeStyle=orthogonalEdgeStyle;rounded=0;orthogonalLoop=1;jettySize=auto;html=1;exitX=1;exitY=0.5;exitDx=0;exitDy=0;exitPerimeter=0;" edge="1" parent="1" source="gB1YrU3bY2tHt8rJDZex-1" target="gB1YrU3bY2tHt8rJDZex-3">
          <mxGeometry relative="1" as="geometry" />
        </mxCell>
        <mxCell id="gB1YrU3bY2tHt8rJDZex-1" value="" style="strokeWidth=2;html=1;shape=mxgraph.flowchart.start_2;whiteSpace=wrap;" vertex="1" parent="1">
          <mxGeometry x="80" y="290" width="40" height="40" as="geometry" />
        </mxCell>
        <mxCell id="gB1YrU3bY2tHt8rJDZex-2" value="" style="ellipse;shape=doubleEllipse;html=1;dashed=0;whiteSpace=wrap;aspect=fixed;" vertex="1" parent="1">
          <mxGeometry x="70" y="590" width="60" height="60" as="geometry" />
        </mxCell>
        <mxCell id="gB1YrU3bY2tHt8rJDZex-7" style="edgeStyle=orthogonalEdgeStyle;rounded=0;orthogonalLoop=1;jettySize=auto;html=1;exitX=1;exitY=0.75;exitDx=0;exitDy=0;entryX=0;entryY=0.75;entryDx=0;entryDy=0;" edge="1" parent="1" source="gB1YrU3bY2tHt8rJDZex-13" target="gB1YrU3bY2tHt8rJDZex-5">
          <mxGeometry relative="1" as="geometry" />
        </mxCell>
        <mxCell id="gB1YrU3bY2tHt8rJDZex-8" style="edgeStyle=orthogonalEdgeStyle;rounded=0;orthogonalLoop=1;jettySize=auto;html=1;exitX=1;exitY=0.25;exitDx=0;exitDy=0;entryX=0;entryY=0.25;entryDx=0;entryDy=0;" edge="1" parent="1" source="gB1YrU3bY2tHt8rJDZex-11" target="gB1YrU3bY2tHt8rJDZex-6">
          <mxGeometry relative="1" as="geometry" />
        </mxCell>
        <mxCell id="gB1YrU3bY2tHt8rJDZex-18" style="edgeStyle=orthogonalEdgeStyle;rounded=0;orthogonalLoop=1;jettySize=auto;html=1;exitX=0.25;exitY=1;exitDx=0;exitDy=0;entryX=0.5;entryY=0;entryDx=0;entryDy=0;" edge="1" parent="1" source="gB1YrU3bY2tHt8rJDZex-3" target="gB1YrU3bY2tHt8rJDZex-2">
          <mxGeometry relative="1" as="geometry" />
        </mxCell>
        <mxCell id="gB1YrU3bY2tHt8rJDZex-19" value="Client application closed" style="edgeLabel;html=1;align=center;verticalAlign=middle;resizable=0;points=[];" vertex="1" connectable="0" parent="gB1YrU3bY2tHt8rJDZex-18">
          <mxGeometry x="-0.1097" y="-1" relative="1" as="geometry">
            <mxPoint x="-17" as="offset" />
          </mxGeometry>
        </mxCell>
        <mxCell id="gB1YrU3bY2tHt8rJDZex-3" value="Menu" style="rounded=1;whiteSpace=wrap;html=1;" vertex="1" parent="1">
          <mxGeometry x="220" y="280" width="120" height="60" as="geometry" />
        </mxCell>
        <mxCell id="gB1YrU3bY2tHt8rJDZex-10" style="edgeStyle=orthogonalEdgeStyle;rounded=0;orthogonalLoop=1;jettySize=auto;html=1;exitX=0.25;exitY=1;exitDx=0;exitDy=0;entryX=1;entryY=1;entryDx=0;entryDy=0;" edge="1" parent="1" source="gB1YrU3bY2tHt8rJDZex-5" target="gB1YrU3bY2tHt8rJDZex-3">
          <mxGeometry relative="1" as="geometry" />
        </mxCell>
        <mxCell id="gB1YrU3bY2tHt8rJDZex-15" value="Join failed/cancieled" style="edgeLabel;html=1;align=center;verticalAlign=middle;resizable=0;points=[];" vertex="1" connectable="0" parent="gB1YrU3bY2tHt8rJDZex-10">
          <mxGeometry x="-0.0194" y="1" relative="1" as="geometry">
            <mxPoint as="offset" />
          </mxGeometry>
        </mxCell>
        <mxCell id="gB1YrU3bY2tHt8rJDZex-20" style="edgeStyle=orthogonalEdgeStyle;rounded=0;orthogonalLoop=1;jettySize=auto;html=1;exitX=1;exitY=0.5;exitDx=0;exitDy=0;entryX=0.25;entryY=0;entryDx=0;entryDy=0;" edge="1" parent="1" source="gB1YrU3bY2tHt8rJDZex-5" target="gB1YrU3bY2tHt8rJDZex-17">
          <mxGeometry relative="1" as="geometry" />
        </mxCell>
        <mxCell id="gB1YrU3bY2tHt8rJDZex-22" value="Joins active session" style="edgeLabel;html=1;align=center;verticalAlign=middle;resizable=0;points=[];" vertex="1" connectable="0" parent="gB1YrU3bY2tHt8rJDZex-20">
          <mxGeometry x="-0.0111" y="-2" relative="1" as="geometry">
            <mxPoint as="offset" />
          </mxGeometry>
        </mxCell>
        <mxCell id="gB1YrU3bY2tHt8rJDZex-5" value="Join" style="rounded=1;whiteSpace=wrap;html=1;" vertex="1" parent="1">
          <mxGeometry x="550" y="310" width="120" height="60" as="geometry" />
        </mxCell>
        <mxCell id="gB1YrU3bY2tHt8rJDZex-9" style="edgeStyle=orthogonalEdgeStyle;rounded=0;orthogonalLoop=1;jettySize=auto;html=1;exitX=0.25;exitY=0;exitDx=0;exitDy=0;entryX=1;entryY=0;entryDx=0;entryDy=0;" edge="1" parent="1" source="gB1YrU3bY2tHt8rJDZex-6" target="gB1YrU3bY2tHt8rJDZex-3">
          <mxGeometry relative="1" as="geometry" />
        </mxCell>
        <mxCell id="gB1YrU3bY2tHt8rJDZex-16" value="Hosting failed/canceled" style="edgeLabel;html=1;align=center;verticalAlign=middle;resizable=0;points=[];" vertex="1" connectable="0" parent="gB1YrU3bY2tHt8rJDZex-9">
          <mxGeometry x="-0.103" y="-1" relative="1" as="geometry">
            <mxPoint as="offset" />
          </mxGeometry>
        </mxCell>
        <mxCell id="gB1YrU3bY2tHt8rJDZex-21" style="edgeStyle=orthogonalEdgeStyle;rounded=0;orthogonalLoop=1;jettySize=auto;html=1;exitX=1;exitY=0.5;exitDx=0;exitDy=0;entryX=0.75;entryY=0;entryDx=0;entryDy=0;" edge="1" parent="1" source="gB1YrU3bY2tHt8rJDZex-6" target="gB1YrU3bY2tHt8rJDZex-17">
          <mxGeometry relative="1" as="geometry" />
        </mxCell>
        <mxCell id="gB1YrU3bY2tHt8rJDZex-23" value="Hosts and joins&lt;br&gt;active session" style="edgeLabel;html=1;align=center;verticalAlign=middle;resizable=0;points=[];" vertex="1" connectable="0" parent="gB1YrU3bY2tHt8rJDZex-21">
          <mxGeometry x="0.0688" y="2" relative="1" as="geometry">
            <mxPoint as="offset" />
          </mxGeometry>
        </mxCell>
        <mxCell id="gB1YrU3bY2tHt8rJDZex-6" value="Host" style="rounded=1;whiteSpace=wrap;html=1;" vertex="1" parent="1">
          <mxGeometry x="550" y="230" width="120" height="60" as="geometry" />
        </mxCell>
        <mxCell id="gB1YrU3bY2tHt8rJDZex-12" value="" style="edgeStyle=orthogonalEdgeStyle;rounded=0;orthogonalLoop=1;jettySize=auto;html=1;exitX=1;exitY=0.25;exitDx=0;exitDy=0;entryX=0;entryY=0.25;entryDx=0;entryDy=0;endArrow=none;endFill=0;" edge="1" parent="1" source="gB1YrU3bY2tHt8rJDZex-3" target="gB1YrU3bY2tHt8rJDZex-11">
          <mxGeometry relative="1" as="geometry">
            <mxPoint x="340" y="295" as="sourcePoint" />
            <mxPoint x="550" y="245" as="targetPoint" />
          </mxGeometry>
        </mxCell>
        <mxCell id="gB1YrU3bY2tHt8rJDZex-11" value="Hosting a game" style="text;html=1;align=center;verticalAlign=middle;resizable=0;points=[];autosize=1;strokeColor=none;fillColor=none;" vertex="1" parent="1">
          <mxGeometry x="400" y="260" width="110" height="30" as="geometry" />
        </mxCell>
        <mxCell id="gB1YrU3bY2tHt8rJDZex-14" value="" style="edgeStyle=orthogonalEdgeStyle;rounded=0;orthogonalLoop=1;jettySize=auto;html=1;exitX=1;exitY=0.75;exitDx=0;exitDy=0;entryX=0;entryY=0.75;entryDx=0;entryDy=0;endArrow=none;endFill=0;" edge="1" parent="1" source="gB1YrU3bY2tHt8rJDZex-3" target="gB1YrU3bY2tHt8rJDZex-13">
          <mxGeometry relative="1" as="geometry">
            <mxPoint x="340" y="325" as="sourcePoint" />
            <mxPoint x="550" y="355" as="targetPoint" />
          </mxGeometry>
        </mxCell>
        <mxCell id="gB1YrU3bY2tHt8rJDZex-13" value="Joining a game" style="text;html=1;align=center;verticalAlign=middle;resizable=0;points=[];autosize=1;strokeColor=none;fillColor=none;" vertex="1" parent="1">
          <mxGeometry x="400" y="325" width="100" height="30" as="geometry" />
        </mxCell>
        <mxCell id="gB1YrU3bY2tHt8rJDZex-25" value="" style="edgeStyle=orthogonalEdgeStyle;rounded=0;orthogonalLoop=1;jettySize=auto;html=1;" edge="1" parent="1" source="gB1YrU3bY2tHt8rJDZex-17" target="gB1YrU3bY2tHt8rJDZex-24">
          <mxGeometry relative="1" as="geometry" />
        </mxCell>
        <mxCell id="gB1YrU3bY2tHt8rJDZex-26" value="Starts session&lt;br&gt;questions/answers&lt;br&gt;on display" style="edgeLabel;html=1;align=center;verticalAlign=middle;resizable=0;points=[];" vertex="1" connectable="0" parent="gB1YrU3bY2tHt8rJDZex-25">
          <mxGeometry x="-0.2462" relative="1" as="geometry">
            <mxPoint y="11" as="offset" />
          </mxGeometry>
        </mxCell>
        <mxCell id="gB1YrU3bY2tHt8rJDZex-37" style="edgeStyle=orthogonalEdgeStyle;rounded=0;orthogonalLoop=1;jettySize=auto;html=1;exitX=1;exitY=0.75;exitDx=0;exitDy=0;entryX=0.5;entryY=1;entryDx=0;entryDy=0;" edge="1" parent="1" source="gB1YrU3bY2tHt8rJDZex-17" target="gB1YrU3bY2tHt8rJDZex-2">
          <mxGeometry relative="1" as="geometry" />
        </mxCell>
        <mxCell id="gB1YrU3bY2tHt8rJDZex-17" value="Active" style="rounded=1;whiteSpace=wrap;html=1;" vertex="1" parent="1">
          <mxGeometry x="660" y="500" width="120" height="60" as="geometry" />
        </mxCell>
        <mxCell id="gB1YrU3bY2tHt8rJDZex-28" value="" style="edgeStyle=orthogonalEdgeStyle;rounded=0;orthogonalLoop=1;jettySize=auto;html=1;" edge="1" parent="1" source="gB1YrU3bY2tHt8rJDZex-24" target="gB1YrU3bY2tHt8rJDZex-27">
          <mxGeometry relative="1" as="geometry" />
        </mxCell>
        <mxCell id="gB1YrU3bY2tHt8rJDZex-30" value="Session ended, &lt;br&gt;results displayed" style="edgeLabel;html=1;align=center;verticalAlign=middle;resizable=0;points=[];" vertex="1" connectable="0" parent="gB1YrU3bY2tHt8rJDZex-28">
          <mxGeometry x="-0.2" y="3" relative="1" as="geometry">
            <mxPoint as="offset" />
          </mxGeometry>
        </mxCell>
        <mxCell id="gB1YrU3bY2tHt8rJDZex-38" style="edgeStyle=orthogonalEdgeStyle;rounded=0;orthogonalLoop=1;jettySize=auto;html=1;exitX=1;exitY=0.5;exitDx=0;exitDy=0;entryX=0;entryY=1;entryDx=0;entryDy=0;" edge="1" parent="1" source="gB1YrU3bY2tHt8rJDZex-24" target="gB1YrU3bY2tHt8rJDZex-2">
          <mxGeometry relative="1" as="geometry" />
        </mxCell>
        <mxCell id="gB1YrU3bY2tHt8rJDZex-24" value="Quiz session" style="whiteSpace=wrap;html=1;rounded=1;" vertex="1" parent="1">
          <mxGeometry x="660" y="690" width="120" height="60" as="geometry" />
        </mxCell>
        <mxCell id="gB1YrU3bY2tHt8rJDZex-29" style="edgeStyle=orthogonalEdgeStyle;rounded=0;orthogonalLoop=1;jettySize=auto;html=1;exitX=0;exitY=0.5;exitDx=0;exitDy=0;" edge="1" parent="1" source="gB1YrU3bY2tHt8rJDZex-27">
          <mxGeometry relative="1" as="geometry">
            <mxPoint x="300" y="340" as="targetPoint" />
            <Array as="points">
              <mxPoint x="300" y="760" />
            </Array>
          </mxGeometry>
        </mxCell>
        <mxCell id="gB1YrU3bY2tHt8rJDZex-31" value="Session ended, back to menu" style="edgeLabel;html=1;align=center;verticalAlign=middle;resizable=0;points=[];" vertex="1" connectable="0" parent="gB1YrU3bY2tHt8rJDZex-29">
          <mxGeometry x="0.1311" y="3" relative="1" as="geometry">
            <mxPoint as="offset" />
          </mxGeometry>
        </mxCell>
        <mxCell id="gB1YrU3bY2tHt8rJDZex-39" style="edgeStyle=orthogonalEdgeStyle;rounded=0;orthogonalLoop=1;jettySize=auto;html=1;exitX=0.5;exitY=1;exitDx=0;exitDy=0;entryX=0;entryY=0.5;entryDx=0;entryDy=0;" edge="1" parent="1" source="gB1YrU3bY2tHt8rJDZex-27" target="gB1YrU3bY2tHt8rJDZex-2">
          <mxGeometry relative="1" as="geometry" />
        </mxCell>
        <mxCell id="gB1YrU3bY2tHt8rJDZex-27" value="Results" style="whiteSpace=wrap;html=1;rounded=1;" vertex="1" parent="1">
          <mxGeometry x="340" y="730" width="125" height="60" as="geometry" />
        </mxCell>
        <mxCell id="gB1YrU3bY2tHt8rJDZex-33" style="edgeStyle=orthogonalEdgeStyle;rounded=0;orthogonalLoop=1;jettySize=auto;html=1;exitX=0.5;exitY=1;exitDx=0;exitDy=0;entryX=0.983;entryY=0.633;entryDx=0;entryDy=0;entryPerimeter=0;" edge="1" parent="1" source="gB1YrU3bY2tHt8rJDZex-6" target="gB1YrU3bY2tHt8rJDZex-2">
          <mxGeometry relative="1" as="geometry" />
        </mxCell>
        <mxCell id="gB1YrU3bY2tHt8rJDZex-34" style="edgeStyle=orthogonalEdgeStyle;rounded=0;orthogonalLoop=1;jettySize=auto;html=1;exitX=0.75;exitY=1;exitDx=0;exitDy=0;entryX=0.8;entryY=0.983;entryDx=0;entryDy=0;entryPerimeter=0;" edge="1" parent="1" source="gB1YrU3bY2tHt8rJDZex-5" target="gB1YrU3bY2tHt8rJDZex-2">
          <mxGeometry relative="1" as="geometry" />
        </mxCell>
        <mxCell id="gB1YrU3bY2tHt8rJDZex-36" value="Client application closed" style="edgeLabel;html=1;align=center;verticalAlign=middle;resizable=0;points=[];" vertex="1" connectable="0" parent="1">
          <mxGeometry x="220" y="630" as="geometry">
            <mxPoint x="179" y="-1" as="offset" />
          </mxGeometry>
        </mxCell>
        <mxCell id="gB1YrU3bY2tHt8rJDZex-41" value="Client application closed" style="edgeLabel;html=1;align=center;verticalAlign=middle;resizable=0;points=[];" vertex="1" connectable="0" parent="1">
          <mxGeometry x="405" y="670" as="geometry" />
        </mxCell>
        <mxCell id="gB1YrU3bY2tHt8rJDZex-42" value="Client application closed" style="edgeLabel;html=1;align=center;verticalAlign=middle;resizable=0;points=[];" vertex="1" connectable="0" parent="1">
          <mxGeometry x="160" y="810" as="geometry" />
        </mxCell>
      </root>
    </mxGraphModel>
  </diagram>
</mxfile>
